<?xml version="1.0" standalone="no"?>
<!DOCTYPE svg PUBLIC "-//W3C//DTD SVG 20010904//EN"
 "http://www.w3.org/TR/2001/REC-SVG-20010904/DTD/svg10.dtd">
<svg version="1.0" xmlns="http://www.w3.org/2000/svg"
 width="201.000000pt" height="201.000000pt" viewBox="0 0 201.000000 201.000000"
 preserveAspectRatio="xMidYMid meet">
<metadata>
Created by potrace 1.11, written by Peter Selinger 2001-2013
</metadata>
<g transform="translate(0.000000,201.000000) scale(0.100000,-0.100000)"
fill="#000000" stroke="none">
<path d="M780 1586 c-52 -8 -124 -22 -160 -31 -92 -24 -251 -84 -275 -104 -11
-10 -33 -23 -49 -29 -15 -7 -55 -33 -87 -58 -194 -149 -249 -357 -147 -557 62
-122 244 -249 458 -321 168 -56 267 -70 490 -70 144 0 220 4 290 17 182 34
385 116 494 199 70 54 116 101 116 120 0 10 4 18 9 18 14 0 54 68 68 115 14
44 16 174 4 247 -9 58 -92 165 -180 232 -126 97 -318 177 -506 211 -123 23
-403 28 -525 11z"/>
</g>
</svg>
